<mxfile host="app.diagrams.net" modified="2023-08-14T11:44:01.045Z" agent="Mozilla/5.0 (Macintosh; Intel Mac OS X 10_15_7) AppleWebKit/537.36 (KHTML, like Gecko) Chrome/115.0.0.0 Safari/537.36" version="21.6.7" etag="28RjB2TYFtsg2gbL6sGy" type="github">
  <diagram name="第 1 页" id="7-asn-W6Vfpx6dhAvmud">
    <mxGraphModel>
      <root>
        <mxCell id="0" />
        <mxCell id="1" parent="0" />
      </root>
    </mxGraphModel>
  </diagram>
</mxfile>
